<svg width="131" height="18" viewBox="0 0 131 18" fill="none" xmlns="http://www.w3.org/2000/svg">
<path fill-rule="evenodd" clip-rule="evenodd" d="M90.8682 17.9883C88.9891 17.9883 87.3945 17.3485 86.0844 16.0689C84.7744 14.7893 84.1193 13.2328 84.1193 11.3992C84.1193 9.56566 84.7744 8.00911 86.0844 6.72952C87.3945 5.44993 88.9891 4.81014 90.8682 4.81014C92.2279 4.81014 93.4272 5.11638 94.4661 5.72887C95.505 6.34135 96.2574 7.18595 96.7234 8.26268C96.838 8.50455 96.8513 8.72887 96.7635 8.93563C96.6756 9.14239 96.4866 9.28869 96.1963 9.37451L93.8703 10.0884C93.6411 10.1586 93.4463 10.1782 93.2859 10.1469C93.1255 10.1157 92.9307 9.96359 92.7015 9.69051C92.48 9.40962 92.2127 9.19701 91.8995 9.05267C91.5863 8.90832 91.2425 8.83615 90.8682 8.83615C90.1807 8.83615 89.5964 9.08582 89.1151 9.58518C88.6339 10.0845 88.3932 10.6892 88.3932 11.3992C88.3932 12.1092 88.6339 12.7139 89.1151 13.2133C89.5964 13.7126 90.1807 13.9623 90.8682 13.9623C91.2425 13.9623 91.5863 13.8901 91.8995 13.7458C92.2127 13.6014 92.48 13.3888 92.7015 13.1079C92.9383 12.8348 93.135 12.6827 93.2916 12.6515C93.4482 12.6203 93.6411 12.6398 93.8703 12.71L96.1963 13.4239C96.4866 13.5098 96.6756 13.656 96.7635 13.8628C96.8513 14.0696 96.838 14.2939 96.7234 14.5358C96.2574 15.6125 95.505 16.4571 94.4661 17.0696C93.4272 17.6821 92.2279 17.9883 90.8682 17.9883ZM97.9549 17.0286V0.585176C97.9549 0.413523 98.0084 0.273082 98.1153 0.163849C98.2223 0.0546158 98.3598 0 98.5278 0H101.644C101.813 0 101.95 0.0546158 102.057 0.163849C102.164 0.273082 102.217 0.413523 102.217 0.585176V17.0286C102.217 17.1925 102.162 17.3329 102.051 17.4499C101.94 17.567 101.809 17.6255 101.656 17.6255H98.5507C98.3903 17.6255 98.2509 17.567 98.1325 17.4499C98.0141 17.3329 97.9549 17.1925 97.9549 17.0286ZM109.934 14.1144C110.492 14.1144 110.914 13.9506 111.2 13.6229C111.487 13.2952 111.63 12.8153 111.63 12.1834V5.68791C111.63 5.54746 111.691 5.42458 111.813 5.31925C111.936 5.21391 112.073 5.16125 112.226 5.16125H115.308C115.461 5.16125 115.598 5.21391 115.721 5.31925C115.843 5.42458 115.904 5.54746 115.904 5.68791V12.7685C115.904 14.29 115.365 15.5423 114.288 16.5254C113.211 17.5085 111.768 18 109.957 18C108.131 18 106.665 17.5046 105.557 16.5137C104.45 15.5228 103.896 14.2744 103.896 12.7685V5.68791C103.896 5.54746 103.955 5.42458 104.073 5.31925C104.192 5.21391 104.327 5.16125 104.48 5.16125H107.562C107.715 5.16125 107.855 5.21391 107.981 5.31925C108.107 5.42458 108.17 5.54746 108.17 5.68791V12.1834C108.17 12.7997 108.322 13.2757 108.628 13.6112C108.934 13.9467 109.369 14.1144 109.934 14.1144ZM121.788 11.3992C121.788 12.1092 122.026 12.7139 122.504 13.2133C122.981 13.7126 123.564 13.9623 124.251 13.9623C124.939 13.9623 125.521 13.7126 125.998 13.2133C126.476 12.7139 126.715 12.1092 126.715 11.3992C126.715 10.6892 126.476 10.0845 125.998 9.58518C125.521 9.08582 124.939 8.83615 124.251 8.83615C123.564 8.83615 122.981 9.08582 122.504 9.58518C122.026 10.0845 121.788 10.6892 121.788 11.3992ZM39.1459 0.000468433C39.3142 0.000468433 39.4519 0.0551184 39.559 0.16442C39.6661 0.273721 39.7196 0.41425 39.7196 0.586009V5.97299C40.1173 5.59043 40.5667 5.30157 41.0677 5.10639C41.5687 4.9112 42.1137 4.81362 42.7026 4.81362C44.4465 4.81362 45.9132 5.4499 47.1026 6.72248C48.292 7.99506 48.8867 9.55649 48.8867 11.4068C48.8867 13.2571 48.292 14.8186 47.1026 16.0911C45.9132 17.3637 44.4465 18 42.7026 18C42.1137 18 41.5687 17.9024 41.0677 17.7072C40.5667 17.512 40.1173 17.2193 39.7196 16.8289V17.0514C39.7196 17.2232 39.6661 17.3637 39.559 17.473C39.4519 17.5823 39.3142 17.637 39.1459 17.637H36.0252C35.857 17.637 35.7193 17.5823 35.6122 17.473C35.5051 17.3637 35.4516 17.2232 35.4516 17.0514V0.586009C35.4516 0.41425 35.5051 0.273721 35.6122 0.16442C35.7193 0.0551184 35.857 0.000468433 36.0252 0.000468433H39.1459ZM27.2887 4.81362C29.1626 4.81362 30.7574 5.45575 32.073 6.74005C33.3886 8.02434 34.0464 9.57991 34.0464 11.4068C34.0464 13.2337 33.3886 14.7893 32.073 16.0736C30.7574 17.3579 29.1626 18 27.2887 18C25.4147 18 23.82 17.3579 22.5044 16.0736C21.1888 14.7893 20.531 13.2337 20.531 11.4068C20.531 9.57991 21.1888 8.02434 22.5044 6.74005C23.82 5.45575 25.4147 4.81362 27.2887 4.81362ZM68.3157 4.81362C70.1515 4.81362 71.643 5.40891 72.7903 6.59952C73.9376 7.79012 74.5113 9.25201 74.5113 10.9852V11.6996C74.5113 11.9728 74.4539 12.1914 74.3391 12.3554C74.2244 12.5193 74.06 12.6013 73.8458 12.6013H66.2276C66.3424 13.179 66.6215 13.6358 67.0652 13.9715C67.5088 14.3072 68.0442 14.475 68.6714 14.475C69.0921 14.475 69.4803 14.397 69.8359 14.2408C70.1916 14.0847 70.5339 13.8388 70.8628 13.503C71.0081 13.3547 71.1592 13.2727 71.316 13.2571C71.4728 13.2415 71.6353 13.2883 71.8036 13.3976L73.8688 14.7795C74.0141 14.8732 74.0963 14.9981 74.1154 15.1543C74.1345 15.3104 74.0944 15.4588 73.995 15.5993C73.5054 16.3254 72.775 16.907 71.8036 17.3442C70.8322 17.7814 69.769 18 68.6141 18C66.6636 18 65.0631 17.3813 63.8125 16.1438C62.562 14.9064 61.9367 13.3469 61.9367 11.4654C61.9367 9.51355 62.5237 7.91699 63.6978 6.67564C64.8719 5.43428 66.4112 4.81362 68.3157 4.81362ZM121.272 0C121.44 0 121.578 0.0546158 121.684 0.163849C121.791 0.273082 121.845 0.413523 121.845 0.585176V5.96879C122.242 5.58647 122.691 5.29779 123.191 5.10273C123.692 4.90767 124.236 4.81014 124.824 4.81014C126.566 4.81014 128.03 5.44603 129.218 6.71781C130.406 7.9896 131 9.55006 131 11.3992C131 13.2484 130.406 14.8088 129.218 16.0806C128.03 17.3524 126.566 17.9883 124.824 17.9883C124.236 17.9883 123.692 17.8908 123.191 17.6957C122.691 17.5006 122.242 17.2081 121.845 16.8179V17.0403C121.845 17.212 121.791 17.3524 121.684 17.4616C121.578 17.5709 121.44 17.6255 121.272 17.6255H118.155C117.987 17.6255 117.85 17.5709 117.743 17.4616C117.636 17.3524 117.582 17.212 117.582 17.0403V0.585176C117.582 0.413523 117.636 0.273082 117.743 0.163849C117.85 0.0546158 117.987 0 118.155 0H121.272ZM14.9036 4.81362C16.2575 4.81362 17.3206 5.25862 18.0932 6.14865C18.8657 7.03868 19.252 8.20975 19.252 9.66189V17.0514C19.252 17.2232 19.1984 17.3637 19.0913 17.473C18.9842 17.5823 18.8466 17.637 18.6783 17.637H15.5576C15.3893 17.637 15.2516 17.5823 15.1446 17.473C15.0375 17.3637 14.9839 17.2232 14.9839 17.0514V10.4348C14.9839 9.86488 14.8386 9.41597 14.548 9.08807C14.2573 8.76016 13.8672 8.59621 13.3777 8.59621C12.8805 8.59621 12.4866 8.76211 12.196 9.09392C11.9053 9.42573 11.76 9.87269 11.76 10.4348V17.0514C11.76 17.2232 11.7064 17.3637 11.5994 17.473C11.4923 17.5823 11.3546 17.637 11.1863 17.637H8.06563C7.89735 17.637 7.75968 17.5823 7.65259 17.473C7.54551 17.3637 7.49197 17.2232 7.49197 17.0514V10.4348C7.49197 9.86488 7.34664 9.41597 7.05599 9.08807C6.76533 8.76016 6.37525 8.59621 5.88573 8.59621C5.38856 8.59621 4.99465 8.76211 4.70399 9.09392C4.41334 9.42573 4.26801 9.87269 4.26801 10.4348V17.0514C4.26801 17.2232 4.21447 17.3637 4.10739 17.473C4.00031 17.5823 3.86263 17.637 3.69436 17.637H0.573658C0.405384 17.637 0.267707 17.5823 0.160624 17.473C0.0535408 17.3637 0 17.2232 0 17.0514V5.75048C0 5.58653 0.055453 5.44795 0.166361 5.33475C0.277268 5.22154 0.416857 5.16494 0.585131 5.16494H3.68288C3.85116 5.16494 3.99074 5.22154 4.10165 5.33475C4.21256 5.44795 4.26801 5.58653 4.26801 5.75048V6.65221C4.65045 6.07448 5.13232 5.62362 5.71363 5.29961C6.29494 4.97561 6.92596 4.81362 7.6067 4.81362C8.40218 4.81362 9.08482 4.96976 9.65466 5.28205C10.2245 5.59434 10.6662 6.05106 10.9798 6.65221C11.4923 6.01202 12.0678 5.54554 12.7065 5.25277C13.3452 4.96 14.0776 4.81362 14.9036 4.81362ZM53.9748 5.64508C54.143 5.64508 54.2826 5.69951 54.3935 5.80835C54.5044 5.9172 54.5599 6.05044 54.5599 6.20808V17.074C54.5599 17.2316 54.5044 17.3648 54.3935 17.4737C54.2826 17.5825 54.143 17.637 53.9748 17.637H50.877C50.7087 17.637 50.5691 17.5825 50.4582 17.4737C50.3473 17.3648 50.2919 17.2316 50.2919 17.074V6.20808C50.2919 6.05044 50.3473 5.9172 50.4582 5.80835C50.5691 5.69951 50.7087 5.64508 50.877 5.64508H53.9748ZM60.061 0.000468433C60.2293 0.000468433 60.367 0.0551184 60.4741 0.16442C60.5812 0.273721 60.6347 0.41425 60.6347 0.586009V17.0397C60.6347 17.2037 60.5792 17.3442 60.4683 17.4613C60.3574 17.5784 60.2255 17.637 60.0725 17.637H56.9633C56.8027 17.637 56.6631 17.5784 56.5445 17.4613C56.426 17.3442 56.3667 17.2037 56.3667 17.0397V0.586009C56.3667 0.41425 56.4202 0.273721 56.5273 0.16442C56.6344 0.0551184 56.7721 0.000468433 56.9403 0.000468433H60.061ZM27.2887 8.84214C26.6003 8.84214 26.0171 9.09197 25.539 9.59163C25.061 10.0913 24.8219 10.6963 24.8219 11.4068C24.8219 12.1173 25.061 12.7223 25.539 13.222C26.0171 13.7216 26.6003 13.9715 27.2887 13.9715C27.9771 13.9715 28.5603 13.7216 29.0383 13.222C29.5164 12.7223 29.7554 12.1173 29.7554 11.4068C29.7554 10.6963 29.5164 10.0913 29.0383 9.59163C28.5603 9.09197 27.9771 8.84214 27.2887 8.84214ZM42.129 8.84214C41.4406 8.84214 40.8574 9.09197 40.3793 9.59163C39.9013 10.0913 39.6622 10.6963 39.6622 11.4068C39.6622 12.1173 39.9013 12.7223 40.3793 13.222C40.8574 13.7216 41.4406 13.9715 42.129 13.9715C42.8174 13.9715 43.4006 13.7216 43.8786 13.222C44.3567 12.7223 44.5957 12.1173 44.5957 11.4068C44.5957 10.6963 44.3567 10.0913 43.8786 9.59163C43.4006 9.09197 42.8174 8.84214 42.129 8.84214ZM68.3846 8.1512C67.8951 8.1512 67.4572 8.30344 67.0709 8.60792C66.6846 8.9124 66.4342 9.30666 66.3194 9.79071H70.3694C70.2853 9.30666 70.0578 8.9124 69.6868 8.60792C69.3158 8.30344 68.8818 8.1512 68.3846 8.1512ZM52.4374 0C53.0875 0 53.6478 0.236166 54.1182 0.708505C54.5886 1.18084 54.8238 1.7371 54.8238 2.3773C54.8238 3.01749 54.5886 3.56985 54.1182 4.03438C53.6478 4.49891 53.0875 4.73117 52.4374 4.73117C51.7872 4.73117 51.225 4.49891 50.7508 4.03438C50.2766 3.56985 50.0395 3.01749 50.0395 2.3773C50.0395 1.7371 50.2766 1.18084 50.7508 0.708505C51.225 0.236166 51.7872 0 52.4374 0Z" fill="white"/>
<path fill-rule="evenodd" clip-rule="evenodd" d="M81.5877 15.1085C81.5877 15.737 81.3618 16.2794 80.9098 16.7354C80.4579 17.1915 79.9196 17.4196 79.295 17.4196C78.6704 17.4196 78.1302 17.1915 77.6746 16.7354C77.219 16.2794 76.9912 15.737 76.9912 15.1085C76.9912 14.4799 77.219 13.9338 77.6746 13.47C78.1302 13.0063 78.6704 12.7744 79.295 12.7744C79.9196 12.7744 80.4579 13.0063 80.9098 13.47C81.3618 13.9338 81.5877 14.4799 81.5877 15.1085Z" fill="#FF006E"/>
</svg>
